<?xml version="1.0" encoding="UTF-8"?>
<!DOCTYPE svg PUBLIC "-//W3C//DTD SVG 1.1//EN" "http://www.w3.org/Graphics/SVG/1.1/DTD/svg11.dtd">
<!-- Creator: CorelDRAW -->
<svg xmlns="http://www.w3.org/2000/svg" xml:space="preserve" width="360px" height="149px" style="shape-rendering:geometricPrecision; text-rendering:geometricPrecision; image-rendering:optimizeQuality; fill-rule:evenodd; clip-rule:evenodd"
viewBox="0 0 350.925 145.372"
 xmlns:xlink="http://www.w3.org/1999/xlink">
 <defs>
  <style type="text/css">
   <![CDATA[
    .fil3 {fill:#007CC3}
    .fil2 {fill:#84C225}
    .fil1 {fill:#DA251D}
    .fil0 {fill:#FCDB00}
    .fil6 {fill:#1F1A17;fill-rule:nonzero}
    .fil4 {fill:#901E78;fill-rule:nonzero}
    .fil5 {fill:#DA251D;fill-rule:nonzero}
   ]]>
  </style>
 </defs>
 <g id="Layer_x0020_1">
  <metadata id="CorelCorpID_0Corel-Layer"/>
  <g id="_36403080">
   <g>
    <path id="_36404088" class="fil0" d="M121.323 41.4155c12.73,7.42963 4.71796,16.555 -1.18517,22.7104l-2.72946 -2.70487c6.15851,-6.80572 0.670067,-12.1987 -2.43371,-13.5385 -23.7562,-10.2559 -67.1016,-1.51738 -79.086,2.95996 27.0575,-11.3486 67.4288,-19.9355 85.4343,-9.42695z"/>
    <path id="_36404016" class="fil1" d="M80.3344 127.612c7.90262,17.1827 14.8823,22.8458 18.2002,3.28175 8.88016,-52.3622 -3.27495,-108.133 -31.6132,-127.723 -18.4752,-12.7721 -21.281,16.7803 -21.1049,20.4396 7.0896,-16.3753 14.6308,-14.6897 17.9695,-11.9372 17.4595,14.3935 34.0697,51.1305 29.488,113.668 -1.31047,17.8881 -6.81006,9.30917 -12.9396,2.27137z"/>
    <path id="_36403944" class="fil1" d="M20.0043 66.2128c-18.9119,0.19461 -27.7802,-4.46359 -11.5083,-15.8207 43.5509,-30.3967 99.6276,-41.9195 129.754,-25.2093 12.8894,7.14936 5.50884,17.4255 -1.18502,22.7104 4.03502,-5.73673 8.24366,-10.2165 -5.16318,-16.2435 -20.6382,-9.27777 -60.7844,-8.96336 -115.371,21.8934 -15.6141,8.82604 -5.50812,10.1341 3.47376,12.6698z"/>
    <path id="_36403872" class="fil2" d="M36.573 88.1754c-9.54661,22.1847 46.3757,6.67072 52.6404,5.11861 -29.5099,4.26363 -53.3672,8.00883 -46.6965,-4.16828 8.25755,-15.074 35.2547,-27.2903 43.425,-29.6272 -18.9356,4.61364 -43.8951,15.9567 -49.3689,28.6769z"/>
    <path id="_36403800" class="fil3" d="M111.775 100.747c2.141,-4.96321 -2.94115,-9.60159 -9.95869,-8.19635 5.34173,2.27875 5.29166,5.71908 4.25697,7.59125 -7.41935,14.5945 -32.1632,27.7315 -39.8175,30.3651 17.7801,-5.34042 39.9909,-17.7835 45.5193,-29.76z"/>
    <path id="_36403728" class="fil0" d="M120.138 64.1259c-15.7264,16.3985 -56.8216,30.0866 -57.9847,30.5691 2.57638,-2.93232 36.5086,-12.5575 55.2553,-33.274l2.72946 2.70487z"/>
   </g>
   <path id="_36402744" class="fil4" d="M121.176 135.912l0 -1.15985 1.00676 0 0 1.15985 -1.00676 0zm0 7.04663l0 -5.94422 1.00676 0 0 5.94422 -1.00676 0zm9.0548 0l0 -5.94422 0.898246 0 0 0.833134c0.186797,-0.290396 0.434798,-0.52552 0.743715,-0.70132 0.308917,-0.177681 0.661675,-0.26739 1.05639,-0.26739 0.43856,0 0.799132,0.0915898 1.0794,0.275059 0.282149,0.183469 0.480521,0.437547 0.594972,0.766287 0.470971,-0.693652 1.08128,-1.04135 1.83252,-1.04135 0.589329,0 1.04135,0.164225 1.35793,0.490939 0.316441,0.326858 0.474733,0.829372 0.474733,1.50754l0 4.08132 -0.99924 0 0 -3.74491c0,-0.403256 -0.0324109,-0.693652 -0.0972328,-0.871333 -0.0667028,-0.1758 -0.185061,-0.319045 -0.354639,-0.427998 -0.171749,-0.107072 -0.373883,-0.162489 -0.604666,-0.162489 -0.41758,0 -0.762814,0.139483 -1.03918,0.418448 -0.274625,0.277084 -0.413818,0.722301 -0.413818,1.33377l0 3.45451 -1.00503 0 0 -3.86153c0,-0.448978 -0.0820402,-0.785241 -0.245976,-1.00879 -0.163936,-0.223549 -0.431036,-0.336408 -0.804775,-0.336408 -0.282293,0 -0.543462,0.0745162 -0.783795,0.225574 -0.240333,0.149032 -0.415699,0.366793 -0.522481,0.653427 -0.108663,0.288515 -0.162055,0.703057 -0.162055,1.24391l0 3.08381 -1.00503 0zm19.9188 -0.733731c-0.373738,0.317164 -0.732284,0.540713 -1.07549,0.672527 -0.345234,0.129933 -0.715211,0.1949 -1.10978,0.1949 -0.652125,0 -1.15189,-0.158582 -1.50277,-0.477627 -0.348996,-0.319045 -0.524362,-0.727944 -0.524362,-1.22279 0,-0.292422 0.0648218,-0.557931 0.198228,-0.798698 0.131669,-0.240767 0.305155,-0.433785 0.518719,-0.578911 0.215591,-0.14527 0.455779,-0.256104 0.72476,-0.33062 0.196347,-0.0515102 0.493833,-0.103165 0.892458,-0.150913 0.812299,-0.0975222 1.41103,-0.212118 1.79432,-0.347839 0.00390667,-0.137457 0.00578767,-0.22543 0.00578767,-0.261747 0,-0.41078 -0.0954965,-0.701176 -0.286055,-0.867426 -0.25567,-0.229336 -0.638814,-0.342051 -1.14408,-0.342051 -0.472997,0 -0.821993,0.0821848 -1.04887,0.248436 -0.224995,0.166251 -0.390957,0.460553 -0.49962,0.882764l-0.982167 -0.135721c0.0897088,-0.420329 0.236571,-0.76238 0.440586,-1.02022 0.204015,-0.259866 0.501501,-0.460553 0.888551,-0.600036 0.387195,-0.139483 0.83516,-0.210092 1.34636,-0.210092 0.507289,0 0.9172,0.0610599 1.23379,0.179562 0.316585,0.120383 0.549105,0.269416 0.699873,0.450859 0.148743,0.181588 0.251763,0.408899 0.312679,0.685983 0.0325556,0.172038 0.0496292,0.481534 0.0496292,0.928631l0 1.34317c0,0.938181 0.0209803,1.53055 0.0649665,1.77696 0.0418159,0.248436 0.127618,0.487321 0.2535,0.714632l-1.05075 0c-0.102876,-0.208211 -0.171604,-0.452885 -0.200253,-0.733731zm-0.0839211 -2.25082c-0.36607,0.150913 -0.913294,0.277084 -1.64196,0.382131 -0.413673,0.0593236 -0.707397,0.126171 -0.877121,0.200687 -0.171604,0.0745162 -0.305155,0.183469 -0.3966,0.328595 -0.0934708,0.143389 -0.141074,0.301971 -0.141074,0.477772 0,0.269271 0.102876,0.492964 0.305155,0.672527 0.202134,0.177681 0.49962,0.267535 0.890432,0.267535 0.38705,0 0.732429,-0.0840658 1.03353,-0.254223 0.301248,-0.170013 0.524362,-0.403111 0.665581,-0.697414 0.108663,-0.227311 0.162055,-0.563574 0.162055,-1.00691l0 -0.3707zm8.90808 3.47752l0.97826 0.14527c0.0400796,0.301827 0.154386,0.521613 0.339447,0.661096 0.249738,0.18535 0.59121,0.278965 1.0221,0.278965 0.467209,0 0.825755,-0.0936155 1.0794,-0.278965 0.253644,-0.187231 0.423223,-0.449123 0.512932,-0.783505 0.0533912,-0.20633 0.0762525,-0.636209 0.0724905,-1.29354 -0.438705,0.517851 -0.985929,0.777717 -1.64196,0.777717 -0.816061,0 -1.44735,-0.294303 -1.89358,-0.884645 -0.446229,-0.588461 -0.671224,-1.29731 -0.671224,-2.12089 0,-0.567481 0.10302,-1.09097 0.307036,-1.57063 0.205896,-0.479508 0.503382,-0.850208 0.892458,-1.11196 0.389076,-0.259866 0.846735,-0.39168 1.37095,-0.39168 0.700018,0 1.27777,0.284608 1.73167,0.852089l0 -0.716513 0.928631 0 0 5.13785c0,0.924869 -0.0952071,1.58206 -0.282293,1.9681 -0.188678,0.385893 -0.486164,0.691626 -0.894339,0.915175 -0.40803,0.223549 -0.909532,0.336263 -1.50638,0.336263 -0.707542,0 -1.27965,-0.160463 -1.71445,-0.479508 -0.436679,-0.319045 -0.646337,-0.798698 -0.631145,-1.44069zm0.831398 -3.57113c0,0.779598 0.154531,1.34896 0.465328,1.70635 0.308917,0.359125 0.695967,0.536806 1.16129,0.536806 0.461566,0 0.848616,-0.177681 1.16129,-0.533044 0.312823,-0.357244 0.469235,-0.915175 0.469235,-1.67755 0,-0.728088 -0.160318,-1.27632 -0.482402,-1.64514 -0.322373,-0.368819 -0.711449,-0.554169 -1.16535,-0.554169 -0.446229,0 -0.82561,0.181588 -1.14031,0.5465 -0.312679,0.363031 -0.46909,0.903744 -0.46909,1.62026zm12.2376 -3.96846l0 -1.15985 1.00691 0 0 1.15985 -1.00691 0zm0 7.04663l0 -5.94422 1.00691 0 0 5.94422 -1.00691 0zm9.05495 0l0 -5.94422 0.903889 0 0 0.844565c0.436824,-0.653427 1.06594,-0.980141 1.88794,-0.980141 0.358546,0 0.686562,0.0649665 0.985784,0.192874 0.301393,0.129933 0.524507,0.298065 0.67325,0.508302 0.150624,0.208211 0.253644,0.456647 0.31456,0.743281 0.0363176,0.187231 0.0552722,0.513945 0.0552722,0.980141l0 3.6552 -1.00676 0 0 -3.617c0,-0.408899 -0.0380539,-0.716513 -0.116332,-0.920962 -0.0781335,-0.202424 -0.217327,-0.364912 -0.415699,-0.485296 -0.200253,-0.122264 -0.432917,-0.183469 -0.701754,-0.183469 -0.429011,0 -0.797106,0.137602 -1.10978,0.408899 -0.310942,0.273322 -0.465328,0.789148 -0.465328,1.55153l0 3.2463 -1.00503 0zm16.7514 -0.733731c-0.373738,0.317164 -0.732284,0.540713 -1.07564,0.672527 -0.34509,0.129933 -0.715066,0.1949 -1.10978,0.1949 -0.652125,0 -1.15175,-0.158582 -1.50262,-0.477627 -0.349141,-0.319045 -0.524362,-0.727944 -0.524362,-1.22279 0,-0.292422 0.0648218,-0.557931 0.198228,-0.798698 0.131525,-0.240767 0.305155,-0.433785 0.518719,-0.578911 0.215446,-0.14527 0.455779,-0.256104 0.724616,-0.33062 0.196491,-0.0515102 0.493977,-0.103165 0.892458,-0.150913 0.812299,-0.0975222 1.41118,-0.212118 1.79447,-0.347839 0.00390667,-0.137457 0.00578767,-0.22543 0.00578767,-0.261747 0,-0.41078 -0.0954965,-0.701176 -0.286055,-0.867426 -0.25567,-0.229336 -0.638958,-0.342051 -1.14422,-0.342051 -0.472852,0 -0.821993,0.0821848 -1.04887,0.248436 -0.224995,0.166251 -0.390812,0.460553 -0.49962,0.882764l-0.982167 -0.135721c0.0897088,-0.420329 0.236571,-0.76238 0.440586,-1.02022 0.20416,-0.259866 0.501646,-0.460553 0.888551,-0.600036 0.387195,-0.139483 0.835305,-0.210092 1.34636,-0.210092 0.507289,0 0.917345,0.0610599 1.23379,0.179562 0.316585,0.120383 0.549249,0.269416 0.700018,0.450859 0.148743,0.181588 0.251763,0.408899 0.312679,0.685983 0.0324109,0.172038 0.0496292,0.481534 0.0496292,0.928631l0 1.34317c0,0.938181 0.0209803,1.53055 0.0648218,1.77696 0.0419606,0.248436 0.127618,0.487321 0.253644,0.714632l-1.05075 0c-0.10302,-0.208211 -0.171749,-0.452885 -0.200253,-0.733731zm-0.0839211 -2.25082c-0.36607,0.150913 -0.913438,0.277084 -1.64196,0.382131 -0.413673,0.0593236 -0.707397,0.126171 -0.877121,0.200687 -0.171749,0.0745162 -0.305155,0.183469 -0.396744,0.328595 -0.0933261,0.143389 -0.141074,0.301971 -0.141074,0.477772 0,0.269271 0.10302,0.492964 0.305155,0.672527 0.202134,0.177681 0.49962,0.267535 0.890577,0.267535 0.38705,0 0.732284,-0.0840658 1.03353,-0.254223 0.301248,-0.170013 0.524362,-0.403111 0.665581,-0.697414 0.108663,-0.227311 0.162055,-0.563574 0.162055,-1.00691l0 -0.3707zm11.288 2.08269l0.144836 0.890432c-0.282149,0.0591789 -0.535793,0.0897088 -0.758908,0.0897088 -0.366215,0 -0.648363,-0.0572979 -0.850497,-0.173775 -0.200398,-0.11474 -0.341472,-0.267535 -0.423512,-0.456647 -0.0817508,-0.187231 -0.123856,-0.584699 -0.123856,-1.1885l0 -3.42022 -0.737927 0 0 -0.78336 0.737927 0 0 -1.47311 1.00127 -0.603798 0 2.0769 1.01067 0 0 0.78336 -1.01067 0 0 3.47564c0,0.288515 0.0170736,0.471984 0.0513655,0.554024 0.0361729,0.0821848 0.0934708,0.147151 0.17363,0.196925 0.0800145,0.0477482 0.194466,0.0724905 0.343209,0.0724905 0.112425,0 0.259287,-0.0133116 0.442467,-0.0400796zm7.50443 -6.14476l0 -1.15985 1.00691 0 0 1.15985 -1.00691 0zm0 7.04663l0 -5.94422 1.00691 0 0 5.94422 -1.00691 0zm8.67933 -2.97298c0,-1.10067 0.30501,-1.91644 0.9172,-2.44572 0.509025,-0.439573 1.13077,-0.661096 1.86493,-0.661096 0.816205,0 1.48367,0.26739 2.00051,0.804341 0.518719,0.53507 0.775981,1.27444 0.775981,2.21827 0,0.766287 -0.114306,1.36806 -0.343209,1.80575 -0.228757,0.439428 -0.562561,0.779454 -0.99924,1.0221 -0.43856,0.242648 -0.915319,0.363031 -1.43404,0.363031 -0.829517,0 -1.50074,-0.265509 -2.01367,-0.800579 -0.513077,-0.533044 -0.768457,-1.30107 -0.768457,-2.3061zm1.03353 0c0,0.762235 0.165817,1.33174 0.497739,1.70997 0.331633,0.38025 0.749358,0.569362 1.25086,0.569362 0.49962,0 0.915319,-0.190993 1.24724,-0.571243 0.329752,-0.38025 0.495714,-0.961042 0.495714,-1.74064 0,-0.735612 -0.165961,-1.29354 -0.49962,-1.67191 -0.333659,-0.378224 -0.747477,-0.567481 -1.24334,-0.567481 -0.501501,0 -0.919226,0.189257 -1.25086,0.5656 -0.331923,0.376488 -0.497739,0.945849 -0.497739,1.70635zm12.2222 2.97298l0 -5.94422 0.904033 0 0 0.844565c0.436679,-0.653427 1.0658,-0.980141 1.88779,-0.980141 0.358546,0 0.686562,0.0649665 0.985929,0.192874 0.301393,0.129933 0.524507,0.298065 0.67325,0.508302 0.150624,0.208211 0.2535,0.456647 0.314415,0.743281 0.0363176,0.187231 0.0554169,0.513945 0.0554169,0.980141l0 3.6552 -1.00691 0 0 -3.617c0,-0.408899 -0.0380539,-0.716513 -0.116332,-0.920962 -0.0781335,-0.202424 -0.217327,-0.364912 -0.415699,-0.485296 -0.200253,-0.122264 -0.432917,-0.183469 -0.701754,-0.183469 -0.429011,0 -0.797106,0.137602 -1.10978,0.408899 -0.310942,0.273322 -0.465328,0.789148 -0.465328,1.55153l0 3.2463 -1.00503 0zm26.6357 -1.91456l1.03932 0.128052c-0.163936,0.609586 -0.467209,1.08143 -0.909676,1.41769 -0.444203,0.334382 -1.01053,0.502514 -1.69911,0.502514 -0.867571,0 -1.55601,-0.26739 -2.0633,-0.80246 -0.50917,-0.534925 -0.76267,-1.28587 -0.76267,-2.2527 0,-1.00127 0.257406,-1.77696 0.770338,-2.3291 0.514957,-0.552288 1.18039,-0.829228 2.00051,-0.829228 0.793199,0 1.44156,0.271297 1.94321,0.812009 0.503382,0.540713 0.755001,1.30309 0.755001,2.28323 0,0.0612046 -0.00188099,0.150913 -0.00578767,0.269416l-4.42409 0c0.0363176,0.653427 0.221233,1.15406 0.553156,1.49987 0.331633,0.347839 0.743715,0.521613 1.23943,0.521613 0.368095,0 0.6828,-0.0973775 0.943968,-0.292277 0.261313,-0.193019 0.467209,-0.502514 0.619714,-0.928631zm-3.30085 -1.62981l3.31243 0c-0.0439863,-0.498607 -0.171749,-0.875095 -0.379526,-1.12353 -0.320492,-0.387774 -0.736046,-0.582673 -1.24522,-0.582673 -0.461566,0 -0.850642,0.154675 -1.1652,0.464315 -0.314704,0.309495 -0.48819,0.724037 -0.522481,1.24189zm11.45 3.54437l2.16806 -3.0896 -2.00615 -2.85462 1.25679 0 0.911557 1.39295c0.169723,0.265509 0.308917,0.487177 0.411792,0.666884 0.16408,-0.246555 0.314704,-0.464315 0.453898,-0.655453l0.999385 -1.40438 1.20123 0 -2.04999 2.7992 2.2064 3.14502 -1.23379 0 -1.21845 -1.84771 -0.324254 -0.498607 -1.55804 2.34632 -1.21845 0zm12.9088 2.27759l0 -8.22181 0.915319 0 0 0.77193c0.215446,-0.301827 0.459541,-0.529282 0.732284,-0.680195 0.270863,-0.150913 0.600615,-0.227311 0.98781,-0.227311 0.507289,0 0.953518,0.131814 1.34057,0.39168 0.388931,0.261747 0.680774,0.630421 0.877265,1.10631 0.198228,0.475746 0.297486,0.997359 0.297486,1.56484 0,0.60756 -0.108808,1.15594 -0.328016,1.64312 -0.217472,0.487321 -0.534057,0.859902 -0.949756,1.11977 -0.415554,0.25784 -0.852234,0.387774 -1.31004,0.387774 -0.335685,0 -0.635052,-0.0706095 -0.902008,-0.211973 -0.266956,-0.141508 -0.484283,-0.321071 -0.655887,-0.536951l0 2.89282 -1.00503 0zm0.909532 -5.21628c0,0.764261 0.154531,1.32986 0.463447,1.6968 0.308917,0.364912 0.684681,0.548237 1.12324,0.548237 0.446229,0 0.829517,-0.189112 1.14798,-0.569362 0.318466,-0.378224 0.47864,-0.964804 0.47864,-1.75974 0,-0.758474 -0.156412,-1.32407 -0.467209,-1.70244 -0.310942,-0.376343 -0.6828,-0.5656 -1.11369,-0.5656 -0.429011,0 -0.808537,0.200687 -1.13843,0.601917 -0.329897,0.40123 -0.493977,0.985929 -0.493977,1.75019zm11.9478 2.93869l0 -8.20647 1.00503 0 0 8.20647 -1.00503 0zm8.70595 -2.97298c0,-1.10067 0.305155,-1.91644 0.917345,-2.44572 0.509025,-0.439573 1.13077,-0.661096 1.86493,-0.661096 0.816205,0 1.48367,0.26739 2.00051,0.804341 0.518719,0.53507 0.775981,1.27444 0.775981,2.21827 0,0.766287 -0.114306,1.36806 -0.343209,1.80575 -0.228757,0.439428 -0.562561,0.779454 -0.99924,1.0221 -0.43856,0.242648 -0.915319,0.363031 -1.43404,0.363031 -0.829517,0 -1.50074,-0.265509 -2.01367,-0.800579 -0.513077,-0.533044 -0.768602,-1.30107 -0.768602,-2.3061zm1.03353 0c0,0.762235 0.165961,1.33174 0.497884,1.70997 0.331633,0.38025 0.749213,0.569362 1.25086,0.569362 0.49962,0 0.915319,-0.190993 1.24724,-0.571243 0.329752,-0.38025 0.495714,-0.961042 0.495714,-1.74064 0,-0.735612 -0.165961,-1.29354 -0.49962,-1.67191 -0.333804,-0.378224 -0.747477,-0.567481 -1.24334,-0.567481 -0.501646,0 -0.919226,0.189257 -1.25086,0.5656 -0.331923,0.376488 -0.497884,0.945849 -0.497884,1.70635zm12.211 2.97298l0 -5.94422 0.903889 0 0 0.899982c0.230783,-0.420329 0.444348,-0.699295 0.640695,-0.833134 0.194466,-0.133695 0.410056,-0.202424 0.644601,-0.202424 0.339447,0 0.682655,0.108808 1.03353,0.324833l-0.346971 0.936155c-0.244239,-0.147151 -0.490071,-0.219642 -0.736191,-0.219642 -0.221089,0 -0.41758,0.0668475 -0.592946,0.198662 -0.175511,0.133695 -0.299512,0.317164 -0.373883,0.552143 -0.112425,0.357388 -0.167842,0.749069 -0.167842,1.17519l0 3.11246 -1.00488 0zm14.3981 -1.91456l1.03932 0.128052c-0.163936,0.609586 -0.467209,1.08143 -0.909676,1.41769 -0.444203,0.334382 -1.01053,0.502514 -1.69911,0.502514 -0.867571,0 -1.55601,-0.26739 -2.0633,-0.80246 -0.50917,-0.534925 -0.762814,-1.28587 -0.762814,-2.2527 0,-1.00127 0.257551,-1.77696 0.770483,-2.3291 0.514957,-0.552288 1.18039,-0.829228 2.00051,-0.829228 0.793199,0 1.44156,0.271297 1.94306,0.812009 0.503527,0.540713 0.755146,1.30309 0.755146,2.28323 0,0.0612046 -0.00188099,0.150913 -0.00578767,0.269416l-4.42409 0c0.0363176,0.653427 0.221233,1.15406 0.553156,1.49987 0.331633,0.347839 0.743715,0.521613 1.23943,0.521613 0.368095,0 0.6828,-0.0973775 0.943968,-0.292277 0.261313,-0.193019 0.467209,-0.502514 0.619714,-0.928631zm-3.30085 -1.62981l3.31243 0c-0.0439863,-0.498607 -0.171749,-0.875095 -0.379526,-1.12353 -0.320492,-0.387774 -0.736046,-0.582673 -1.24522,-0.582673 -0.461566,0 -0.850642,0.154675 -1.16535,0.464315 -0.31456,0.309495 -0.488045,0.724037 -0.522337,1.24189zm15.9695 3.54437l0 -0.75095c-0.375764,0.590487 -0.928631,0.884645 -1.65903,0.884645 -0.472997,0 -0.907795,-0.129933 -1.3044,-0.39168 -0.3966,-0.259866 -0.703635,-0.624778 -0.922988,-1.09474 -0.217327,-0.468222 -0.326135,-1.00503 -0.326135,-1.61461 0,-0.592368 0.0992585,-1.13105 0.295605,-1.61447 0.198228,-0.483415 0.493833,-0.854115 0.888696,-1.11022 0.394719,-0.25784 0.837186,-0.387774 1.32523,-0.387774 0.356665,0 0.675131,0.0763972 0.953518,0.227311 0.280268,0.150913 0.507289,0.347694 0.682655,0.590487l0 -2.94447 0.99924 0 0 8.20647 -0.932393 0zm-3.17902 -2.96734c0,0.76238 0.160318,1.33174 0.480666,1.70823 0.320347,0.376343 0.697848,0.565455 1.13453,0.565455 0.438705,0 0.812443,-0.181443 1.11948,-0.540713 0.307036,-0.359125 0.461566,-0.909387 0.461566,-1.64891 0,-0.81389 -0.156412,-1.41002 -0.469235,-1.79027 -0.312823,-0.382131 -0.697848,-0.571387 -1.15753,-0.571387 -0.446229,0 -0.819967,0.183469 -1.11933,0.548381 -0.299367,0.365057 -0.450136,0.942087 -0.450136,1.72921z"/>
   <g>
    <path id="_36402768" class="fil5" d="M163.872 83.5886c-1.59233,1.12975 -2.03465,2.45643 -1.33348,3.98756 0.891156,0.965961 1.95261,1.38803 3.19117,1.25173 2.28627,-0.612335 3.21143,-1.87115 2.7694,-3.78296 -0.782782,-1.87795 -2.32708,-2.36122 -4.62709,-1.45632z"/>
    <path id="_36402912" class="fil6" d="M276.519 79.5402c-3.89206,2.08891 -5.87897,5.14408 -5.96072,9.172l0.0817508 0.238307c0.102152,0.741545 0.258709,1.34722 0.455779,1.81009 2.11626,5.58611 6.06287,8.62782 11.8395,9.13134l0.360716 0.142955 0.877989 0.299367c0.693941,0.265509 1.25882,0.523928 1.69405,0.775692 0.973051,0.584988 1.55818,1.38803 1.75554,2.40868l-0.0202568 0.1431c-0.0954965,0.503382 -0.251763,0.952505 -0.476325,1.33333 -3.97367,4.64069 -8.43755,5.04221 -13.3776,1.21816l-0.380828 1.61273c-0.013601,0.360427 -0.0749503,0.646193 -0.176813,0.857298l0 0.183614 -0.258853 1.01385 0 0.176813 -0.183469 0.660083 -0.0206909 0.197359 -0.0745162 0.340315 -0.238162 1.05451c0.101863,0.190559 0.238162,0.319768 0.394429,0.401519 4.40239,1.9121 8.48501,2.23867 12.2616,0.979852 2.7354,-0.802749 4.79696,-2.27253 6.17833,-4.42959 3.00756,-5.88562 1.51724,-10.4721 -4.46359,-13.7516l-0.462869 -0.244963 -0.217616 -0.0542594 -0.857443 -0.442322 -0.13601 -0.0206909 -0.238162 -0.115609c-0.347115,-0.149611 -0.633026,-0.292566 -0.857298,-0.442033 -4.51829,-1.56527 -6.56625,-3.64059 -6.14447,-6.21942 0.626081,-1.28587 1.55833,-2.17732 2.78994,-2.66725l0.442322 -0.0816061 1.91181 -0.102297 0.258709 -0.0202568 0.217616 0.0612046c0.217616,-0.0270573 0.47647,-0.0202568 0.782492,0.0205462 0.319913,0.0273467 0.503672,0.0542594 0.558076,0.0816061 0.346826,0.0134563 0.639682,0.0476035 0.877555,0.0952071l0.197359 0 1.0956 0.163212 0.0816061 -0.163212c0.238307,-0.326714 0.48327,-0.707542 0.734889,-1.13641l0.721432 -1.21092c0.12921,-0.265654 0.278965,-0.489926 0.435232,-0.660083 0.1363,-0.265509 0.244963,-0.456068 0.340459,-0.578622l0.197359 -0.380973c0.20416,-0.292422 0.353626,-0.544185 0.462579,-0.755001l-0.1431 -0.456213c-2.35399,-2.28627 -5.4909,-2.91886 -9.43086,-1.89821l-3.88511 1.25882zm14.3366 -2.03451l0.122554 0.401519 0.313113 1.83035c0,0.108663 0.0202568,0.183614 0.0610599,0.217616l0.0613492 0.27911 0 0.224272c0.040803,0.224706 0.0749503,0.35406 0.102297,0.394863 0.115319,0.877555 0.251619,1.57873 0.394429,2.09557 0.040803,0.183903 0.0816061,0.374173 0.122409,0.558076l0.040803 0.401519 0.21805 1.21092 0.0610599 0.442322 0.176813 0.898246 0.163357 0.891445 0.156556 0.877844 0.0613492 0.34017c0.101863,0.292566 0.156556,0.571532 0.156556,0.836752l0.0610599 0.102297 0.0613492 0.394719 0.0610599 0.380973 0.217761 0.999964 0.0613492 0.333804 0.0542594 0.340025 0.102297 0.659939c0.040803,0.1431 0.0816061,0.35406 0.122409,0.619135l0.217761 1.11615 0.0613492 0.258564 0.0337131 0.278965 0.0613492 0.34017 0.217761 1.21121 0.0613492 0.238162 0 0.224417 0.0610599 0.319913 0.102297 0.394719 0.0542594 0.34017 0.0613492 0.380828 0.0612046 0.27911 0.217616 1.11586c0,0.102152 0.0205462,0.177103 0.0613492,0.217906l0.0610599 0.435232 0.102297 0.619425 0.0542594 0.217616 0.0613492 0.34017c0.0270573,0.190704 0.0612046,0.374173 0.102008,0.558076l0.217906 1.21801 0.0610599 0.380973 0.27911 1.55138c0.101863,0.374173 0.176813,0.694086 0.217616,0.959595l0.0613492 0.496582 0.115753 0.380973 0 0.238162c0.0270573,0.21096 0.0610599,0.34017 0.101863,0.380973 0,0.1431 0.0205462,0.326569 0.0614939,0.558076 0.101863,0.292566 0.170013,0.558076 0.190269,0.795949 0.0205462,0.238162 0.0476035,0.374462 0.0884066,0.41541 0,0.149466 0.0205462,0.33337 0.0613492,0.557642l0.0952071 0.442322c0.040803,0.1431 0.0681498,0.27231 0.0884066,0.388063 0.0205462,0.108663 0.0545487,0.258419 0.0954965,0.449123 0.0269126,0.33337 0.0748056,0.632592 0.156556,0.898101l0.0610599 0.278821c0.040803,0.367372 0.0950624,0.680485 0.156556,0.932248l0 0.224706c0.040803,0.0748056 0.0816061,0.210816 0.122409,0.394719l0.040803 0.319479 0.176813 0.959595 0.0614939 0.27911 0.040803 0.217616c0,0.142955 0.040803,0.33337 0.115753,0.558076l0.0610599 0.496582 0.0613492 0.319913c0.108663,0 0.176813,-0.0138904 0.217616,-0.040803l0.836752 -0.898246 0.258853 -0.33337 1.34057 -1.38137 0 -1.27227 -0.0409477 -0.122843 0 -0.993308 -0.0613492 -0.34017 0 -1.11601 -0.0610599 -0.102008 0 -0.993308 -0.0613492 -0.278965 0 -1.17721 -0.0544041 -0.319913c0.0341472,-0.40832 0.0202568,-0.748345 -0.040803,-1.01385l0 -0.598589c-0.040803,-0.517273 -0.040803,-0.946139 0,-1.27951l0.435232 -0.0542594 0.163357 0.156556 1.33377 2.01396 0.217616 0.278965 1.05466 1.55153 0.224706 0.258419c0.142811,0.306312 0.346971,0.605679 0.61248,0.898101l0.619135 0.939049 0.163212 0.238162 0.217761 0.27911 0.619135 0.938904 0.0953518 0.102008 0.27911 0.394719 0.40123 0.619135 0.156556 -0.0610599 0.401519 -0.340459 0.319768 -0.217616 0.238162 -0.156556 0.217761 -0.183614c0.190559,-0.102152 0.292422,-0.197359 0.319768,-0.278965l0.959305 -0.653283 0.217906 -0.163212 0.557786 -0.455923 0.102152 -0.0613492 0.27911 -0.217616 0.612335 -0.442322c0,-0.102008 -0.0340025,-0.217616 -0.115753,-0.33337l-0.278965 -0.224706 -0.319913 -0.34017 -0.122409 -0.0340025 -1.27242 -1.23827 -0.163212 -0.102297 -1.7282 -1.61244 -0.27911 -0.217616 -1.0004 -0.959595 -0.217616 -0.156556 -0.442322 -0.442322 -0.176813 -0.115464 -0.537529 -0.558076 -0.122409 -0.040803c-0.224706,-0.265509 -0.442322,-0.476325 -0.653283,-0.619135l-0.183903 -0.993597 1.99385 -1.68059c0.122409,-0.0612046 0.204015,-0.115753 0.238162,-0.156556 0.190559,-0.183614 0.313113,-0.299367 0.380973,-0.34017l0.217906 -0.156556 1.7758 -1.45589 -0.040803 -0.497016c0,-0.292566 -0.0202568,-0.530729 -0.0612046,-0.720998l-0.115609 -1.99385 -0.0409477 -0.176668 0 -0.558076 -0.0613492 -0.163357 -0.115753 -1.61273 -0.278676 0.217906c-0.217906,0.306023 -0.435522,0.550986 -0.660228,0.741545 -0.122554,0.102008 -0.251763,0.251763 -0.40123,0.435666 -0.292856,0.251619 -0.605679,0.584988 -0.932248,1.00011 -0.292566,0.265509 -0.524073,0.503382 -0.680629,0.714632l-0.598879 0.619135c-0.0816061,0.108663 -0.156122,0.204015 -0.231073,0.299222 -0.0681498,0.0952071 -0.1431,0.156556 -0.20416,0.197359 -0.231362,0.183614 -0.360716,0.319913 -0.401519,0.401519l-0.217616 0.27911 -0.619425 0.598445 -0.156267 0.21805 -2.17761 2.33388 -0.0952071 -0.442467 0 -1.05466 -0.0613492 -0.163357 -0.0610599 -2.23187 -0.0613492 -0.435232 -0.0409477 -2.21147 -0.0542594 -0.238162 -0.278965 -7.28088c0,-0.101863 -0.0202568,-0.176813 -0.0612046,-0.217616l-0.0613492 -2.21132 -0.0610599 -0.401519 0 -0.993308 -0.040803 -0.340459 0 -0.939049 -0.0546934 -0.217616 -0.0610599 -2.33388 -0.0613492 -0.156556 -0.0409477 -1.61953 -0.734744 -0.0542594c-0.374317,0.040803 -0.707542,0.0205462 -1.00011,-0.0610599l-1.83049 -0.0614939 -0.101863 -0.040803 -0.837041 0 -0.34017 -0.0610599 -0.619135 0c-0.21125,-0.0341472 -0.422065,-0.0546934 -0.626225,-0.0546934 -0.20416,0 -0.380973,-0.0202568 -0.523928,-0.0610599l-1.83729 0 0 0.496726zm23.3185 13.874l-0.673395 0.34017 -0.102297 0.102152c-0.238162,0.129354 -0.428432,0.26522 -0.578332,0.394429l-0.775692 0.741689c-1.50378,2.04131 -2.17052,4.17131 -1.99371,6.37598l0.197359 2.6739c0.877989,3.85126 2.99381,6.57985 6.34154,8.19258 2.64019,0.755146 4.80405,0.217616 6.47784,-1.61273 1.53793,-2.02076 2.22521,-4.15048 2.05491,-6.38249 -0.149466,-4.44999 -1.93236,-7.87947 -5.34115,-10.2882l-0.524073 -0.238162 -0.374173 -0.197359 -1.23856 -0.401519 -0.380973 -0.040803 -1.8713 0 -1.21801 0.340315zm2.7762 6.19888c0.422065,0.0270573 0.796238,0.122409 1.11615,0.278676 1.48323,1.18401 2.36079,2.59939 2.6263,4.23918 0.26522,1.63979 -0.102152,2.9941 -1.11572,4.05571 -0.530729,0.237873 -1.03455,0.299222 -1.51058,0.176668 -1.68088,-0.993308 -2.64019,-2.32027 -2.89195,-3.98061 -0.414976,-1.59899 -0.20416,-3.00061 0.639392,-4.21183 0.381262,-0.27911 0.762235,-0.462579 1.13641,-0.557786zm13.7924 -6.19888l-0.673395 0.34017 -0.102297 0.102152c-0.238162,0.129354 -0.428432,0.26522 -0.578188,0.394429l-0.775836 0.741689c-1.50378,2.04131 -2.17052,4.17131 -1.99371,6.37598l0.197359 2.6739c0.877989,3.85126 2.99381,6.57985 6.34169,8.19258 2.64019,0.755146 4.80391,0.217616 6.47784,-1.61273 1.53778,-2.02076 2.22507,-4.15048 2.05477,-6.38249 -0.149466,-4.44999 -1.93236,-7.87947 -5.34115,-10.2882l-0.524073 -0.238162 -0.374173 -0.197359 -1.23856 -0.401519 -0.380973 -0.040803 -1.87115 0 -1.21816 0.340315zm2.7762 6.19888c0.422065,0.0270573 0.796383,0.122409 1.11615,0.278676 1.48323,1.18401 2.36093,2.59939 2.62644,4.23918 0.26522,1.63979 -0.102297,2.9941 -1.11586,4.05571 -0.530729,0.237873 -1.0344,0.299222 -1.51058,0.176668 -1.68088,-0.993308 -2.64019,-2.32027 -2.89195,-3.98061 -0.414976,-1.59899 -0.204015,-3.00061 0.639392,-4.21183 0.381262,-0.27911 0.762235,-0.462579 1.13641,-0.557786zm9.75077 -19.9711c0.0749503,0.40832 0.1431,0.823585 0.197359,1.2319l0 0.224272c0.102152,0.558076 0.163357,1.02746 0.176813,1.41552l0.0613492 0.258419c0.0273467,0.306312 0.0610599,0.659939 0.102008,1.07491l0.115609 0.558076 0.0206909 0.34017 0.040803 0.497016 0.122409 0.496582 -0.0205462 0.183614 0.115753 0.598879 -0.0202568 0.13601c0.0678604,0.319768 0.108663,0.612335 0.122409,0.877844l0.13601 0.898246 0.040803 0.455779 0.122554 0.898246 0.040803 0.435522c0.0749503,0.523639 0.149756,0.931959 0.217616,1.23827l-0.0202568 0.163357 0.0816061 0.455779 -0.0205462 0.156556 0.0817508 0.34017c0.0340025,0.414976 0.0953518,0.898101 0.177103,1.45618l0.0610599 0.496726c0.0613492,0.496726 0.122409,0.945704 0.176813,1.35402l0.102152 0.503672 0 0.278821c0.0476035,0.448978 0.108953,0.823585 0.176813,1.11601l-0.0202568 0.176813c0.0544041,0.455923 0.115753,0.823295 0.176813,1.11586 0.013601,0.456213 0.0544041,0.823585 0.122554,1.11615l0.040803 0.163212c0.0273467,0.306167 0.0613492,0.571677 0.102152,0.795949l-0.0205462 0.156556 0.13601 0.680629c-0.0134563,0.108663 0.00708989,0.271876 0.0613492,0.496582l0.299367 2.46989 0.102152 0.721432 0.0749503 0.401519c0.040803,0.557931 0.101863,1.02065 0.183614,1.39483 -0.013601,0.306312 0.0205462,0.564731 0.0950624,0.775692 0,0.347115 0.0273467,0.653138 0.0817508,0.918647l0.0816061 0.61248 0.0954965 0.482836 0 0.238162 0.040803 0.217906 0.163212 1.23842 0.0544041 0.619135 0.278965 1.25202 0.163357 -0.0205462 1.13641 -0.0749503c0.374173,-0.040803 0.694086,-0.0474589 0.973051,-0.0202568l0.823295 -0.183758 -0.040803 -0.455923 -0.0205462 -2.53124 -0.0409477 -0.163212 0 -0.33337 0.0409477 -0.639826 -0.0202568 -0.340025 -0.0206909 -1.15666 0 -0.278965c-0.0269126,-0.1431 -0.0340025,-0.27911 -0.0202568,-0.401519 0.013601,-0.115753 0.013601,-0.224417 0.00680051,-0.326714 -0.00680051,-0.101863 -0.00680051,-0.244963 -0.00680051,-0.428432l-0.040803 -0.796238 0.0202568 -0.176813 -0.0202568 -1.13641 -0.0205462 -0.34017 0 -1.39512c-0.040803,-0.149466 -0.0542594,-0.394429 -0.040803,-0.741689l0 -0.217616 -0.040803 -0.455779c0.040803,-0.360716 0.0545487,-0.673829 0.040803,-0.939049l0 -0.278965c-0.040803,-0.33337 -0.0476035,-0.748345 -0.040803,-1.25896l-0.013601 -1.43563 -0.040803 -0.217616 0 -0.755435 0 -0.278965 0 -0.238307c-0.040803,-0.598589 -0.0476035,-1.09517 -0.0205462,-1.49669 -0.0270573,-0.1431 -0.0337131,-0.27231 -0.0202568,-0.367517 0.0134563,-0.102152 0.0134563,-0.190559 0,-0.258709 -0.0134563,-0.0746609 -0.0205462,-0.156267 -0.0205462,-0.251763 0,-0.0950624 0.0137457,-0.156556 0.040803,-0.197359 -0.0270573,-0.149466 -0.0476035,-0.340025 -0.0610599,-0.578332 0.040803,-0.306023 0.0340025,-0.591789 -0.0205462,-0.857298l0.040803 -0.639392 -0.0202568 -0.340459 -0.040803 -1.31322c0.040803,-0.360572 0.0340025,-0.666739 -0.0205462,-0.918358 0.027202,-0.238162 0.0205462,-0.442322 -0.0202568,-0.619425 0.040803,-0.353626 0.0474589,-0.666739 0.0202568,-0.931959 0,-0.190704 0,-0.381262 0,-0.578622 -0.0678604,-0.482836 -0.0817508,-0.898246 -0.0409477,-1.25853 -0.0269126,-0.306457 -0.0269126,-0.571677 0,-0.796383 -0.0269126,-0.346826 -0.0337131,-0.653138 -0.0202568,-0.918358l0 -0.299656 0 -0.278965 0 -0.278821 -0.0340025 -1.55138 -0.0202568 -0.278965 0 -0.639682c-0.0138904,-0.571677 -0.0613492,-1.06146 -0.1431,-1.47658l-0.360572 0.0202568 -0.27911 0 -1.23147 0.163357c-0.26522,-0.0270573 -0.516983,-0.0134563 -0.741689,0.0340025l-0.238162 -0.0202568 -0.952505 0.102008 -0.224706 0c-0.292566,0.0545487 -0.557786,0.0884066 -0.795949,0.102152l-0.558076 0 -0.176813 0.040803c-0.571532,0.013601 -1.0412,0.0678604 -1.39483,0.176813l0.0202568 0.34017z"/>
    <path id="_36402936" class="fil6" d="M141.731 80.1796c-0.21125,0 -0.388063,0.0205462 -0.517273,0.0546934l-2.51098 0.0610599 -0.142666 0.0816061 -3.81045 0.122554 -0.1363 0.0545487 -3.94632 0.142811c-0.347115,0.0950624 -0.782637,0.108953 -1.31337,0.0613492l-0.20416 0.0746609 -2.36802 0.0613492 -0.122409 0.0610599 -6.51836 0.27911 -0.47647 0.0613492c-0.442322,-0.040803 -0.829951,-0.0205462 -1.17721,0.0610599l0 0.714632 0.13601 0.537529 0.0613492 0.795949 0.122554 0.319768 0.13601 1.11615c0.040803,0.13601 0.0748056,0.26522 0.102152,0.40123 0.0273467,0.129499 0.0476035,0.252053 0.0681498,0.360716 0.0202568,0.102152 0.0476035,0.313113 0.0884066,0.632881 0.0544041,0.483125 0.142811,1.04771 0.258564,1.69419l0.0816061 0.278965 0.0613492 0.319913 0.0610599 0.462579 0.13601 0.932248 0.0613492 0.183903c0.0544041,0.489926 0.122554,0.891011 0.197504,1.19067l1.31988 -0.197359 0.455779 -0.0613492 0.401519 -0.0746609 0.455923 -0.0613492 0.401519 -0.0610599 0.33337 -0.0614939 0.401519 -0.0748056 1.43563 -0.20416 0.537529 -0.0610599 0.258709 -0.0546934 0.462579 -0.0816061 0.313113 -0.0610599c0.401519,0 0.755146,-0.0476035 1.06146,-0.13601l0.197359 0 1.05451 -0.183903 0.340459 0.183903 0.122409 2.17052 0.0749503 0.537529 0.0610599 1.11572 0.0613492 0.401519c0,0.47647 0.0202568,0.959595 0.0610599,1.45632l0.0749503 0.258419c0,0.646482 0.040803,1.19747 0.122409,1.63299l0.142811 2.17052 0.0546934 0.48327 0.0816061 1.49032c0.122409,0.707542 0.156556,1.25853 0.122409,1.66005l0.0544041 0.517128 0.0816061 0.537529c0,0.646482 0.040803,1.20456 0.122554,1.65368l0.0748056 1.23827 0.0610599 0.537529c0,0.265509 0.0206909,0.483125 0.0614939,0.653138l0 0.721432 0.0816061 0.197359c0,0.346826 0.0202568,0.632592 0.0544041,0.857298l0.0613492 1.37428c0.040803,0.1363 0.0610599,0.33337 0.0610599,0.598879 0,0.26522 0.0273467,0.483125 0.0816061,0.659939l0 0.598879 0.0614939 0.258564c0,0.659939 0.040803,1.21801 0.135865,1.65354l0.857443 0 0.197359 -0.0816061 0.380973 -0.0613492c0.360716,0 0.646482,-0.0409477 0.857298,-0.13601l0.537529 -0.0614939 0.258709 -0.0610599 0.319913 -0.0748056 0.278676 0 1.11615 -0.183614 0.319913 -0.0749503 1.05437 -0.122409 0 -2.17081c0.0546934,-0.26522 0.0816061,-0.489926 0.0816061,-0.660083l0 -4.5452 0.0614939 -0.537385 0 -4.86511 0.0610599 -0.197359 0.0545487 -10.4654 0.0817508 -0.204015 0 -2.36802 0.659939 -0.20416c0.306023,0 0.564876,-0.0134563 0.775692,-0.0542594 0.13601,-0.0542594 0.33337,-0.101863 0.598879,-0.142666 0.360427,0 0.646193,-0.0480376 0.857298,-0.1363l0.34017 0c0.12921,-0.0409477 0.251763,-0.0749503 0.353916,-0.0952071 0.108663,-0.0134563 0.217616,-0.0273467 0.33337,-0.0273467 0.108663,0 0.190269,-0.0270573 0.224417,-0.0816061l4.86511 -0.714343 0 -0.197359c0.0953518,-0.306312 0.163212,-0.700742 0.204015,-1.17721l0.1363 -1.45632c0.040803,-0.265075 0.0610599,-0.482836 0.0610599,-0.659939l0.1363 -0.857298c0,-0.346826 0.0202568,-0.646482 0.0612046,-0.918502 0.135865,-0.796238 0.183758,-1.44938 0.142955,-1.97345l-2.37497 0 -3.62641 0.20416zm7.34874 2.40868c-0.224706,0.109097 -0.54433,0.21125 -0.952505,0.319913l-0.918792 0.238162 -0.34017 0.102297c-0.347115,0.115319 -0.646482,0.19707 -0.911991,0.237873l-0.183469 0.0816061 -0.496726 0.115753 0 0.524073 0.115753 0.993308 0 0.517128 0.142666 1.13641c0.0273467,0.503382 0.0614939,0.925592 0.102297,1.25896l0.0337131 0.877555c0.0816061,0.619135 0.129499,1.14986 0.1431,1.57193l0.101863 0.816495c0.0138904,0.428577 0.040803,0.782492 0.0749503,1.07506l0.122409 0.938904 0 0.455923c0.0681498,0.626225 0.108953,1.14986 0.122554,1.57873l0.1363 1.05466 -0.040803 0.197359 0.183469 1.49683c-0.0134563,0.483125 0.0134563,0.884645 0.0952071,1.21801 0.0273467,0.197359 0.0273467,0.367372 0,0.496726 0.122409,0.626081 0.170302,1.14986 0.142955,1.57859l0.13601 1.25216 0 0.380973 0.163357 1.39483 -0.0202568 0.176813 0.13601 1.25882c0,0.34726 0.0205462,0.646482 0.0613492,0.898246 0.0952071,0.408175 0.115464,0.768891 0.0610599,1.0752l0.374173 2.94636 1.57873 -0.0749503c0.238162,0.0134563 0.530729,0 0.877699,-0.040803l0.415265 0.0202568c0.585133,0.0137457 1.07491,-0.0270573 1.45589,-0.122554l-0.0202568 -0.578332c-0.0273467,-0.544185 -0.0205462,-0.843552 0.0202568,-0.898101 -0.0269126,-0.251763 -0.0269126,-0.571532 0,-0.952505l0 -0.442322c-0.0134563,-0.462579 0,-0.850642 0.040803,-1.15666 -0.0269126,-2.70834 0.442322,-5.10327 1.41552,-7.17193 0.428432,-0.639682 0.911557,-1.14306 1.45618,-1.51724 0.741689,0.251619 1.34013,0.625791 1.79635,1.11572 0.435232,0.667028 0.727799,1.31322 0.877555,1.93265 0.0476035,0.414976 0.0681498,0.898246 0.0544041,1.45589l0.0205462 0.578332 -0.197359 1.23871c-0.0273467,0.380828 -0.101863,0.728088 -0.217616,1.03411l-0.122554 0.598879 -0.115609 0.401519 -1.55818 4.06207c-0.197359,0.360716 -0.340459,0.673829 -0.414976,0.938904l4.64026 -0.557931c0.149901,-0.40123 0.251763,-0.721143 0.319913,-0.966106 0.0681498,-0.244963 0.108953,-0.455779 0.122409,-0.626225 0.0884066,-0.231073 0.176813,-0.496582 0.258564,-0.802604l0.156556 -0.653283c0.0816061,-0.265509 0.12921,-0.503672 0.142955,-0.721288 0.0884066,-0.21096 0.156556,-0.46938 0.197359,-0.775836l0.217761 -1.11572 0.122409 -0.455923c0.170013,-0.830241 0.26522,-1.39512 0.278965,-1.69434l0.13601 -0.721432c0.0273467,-0.462579 0.0614939,-0.829951 0.102297,-1.09517l0.040803 -0.177103c-0.040803,-0.258564 -0.0273467,-0.47618 0.040803,-0.660083l-0.0205462 -0.558076c-0.040803,-7.3486 -3.7355,-8.97464 -11.0841,-4.88522l-0.0817508 -1.07535 -0.0613492 -0.496726 0.0205462 -0.319768 -0.040803 -0.442033c-0.0749503,-0.619425 -0.102297,-1.15695 -0.0749503,-1.59219l-0.204015 -2.0144 0.0201121 -0.319768 -0.0950624 -0.816495 0.0202568 -0.319624 -0.101863 -1.31351c-0.0409477,-0.33337 -0.0544041,-0.605245 -0.0409477,-0.816495l-0.217616 -2.78965 -0.762091 0.0950624zm15.5956 26.9932l0.319768 0.040803 0.455923 0.101863c0.571532,0.0341472 1.25202,0.13601 2.03451,0.292566 0.571532,0.1363 1.08171,0.183903 1.53084,0.1431l0.1431 -0.156556 -0.1431 -2.33388 0.0613492 -0.340459 -0.102152 -2.01396 0.040803 -0.299222 -0.0952071 -2.19121 0.040803 -0.476325 -0.102152 -0.898246 0.0613492 -0.421776 -0.0816061 -0.898101 0.040803 -0.156556 -0.0613492 -1.02065 0.040803 -0.217616 -0.101863 -2.19121c0.0542594,-0.516838 0.0340025,-0.965961 -0.0614939,-1.33333l0.0817508 -0.258853 -0.0952071 -0.918358 0.0340025 -0.27911 -0.0340025 -1.57873 -2.13652 -0.632592c-0.265509,-0.1363 -0.578332,-0.251763 -0.938904,-0.360716l-0.796383 -0.197359c-0.687285,-0.306023 -1.28587,-0.489926 -1.78955,-0.544185l1.65368 19.1407zm19.6511 -19.1407c-0.292856,0.0950624 -0.667028,0.163212 -1.11615,0.204015l-0.258419 0.0409477 -0.517273 0.135865 -0.217616 -0.0202568c-0.319913,0.0952071 -0.578332,0.156267 -0.782492,0.183614 -0.381262,0.0341472 -0.680485,0.0884066 -0.898101,0.156556 -0.27911,0.0134563 -0.544619,0.0681498 -0.796238,0.156556l-0.197504 3.79005 -0.0610599 0.319624 -0.176813 3.15066c-0.0137457,0.421776 -0.0478929,0.768602 -0.102152,1.03411l-0.176813 3.38853 -0.238162 -0.340025 -0.537529 -0.755435c-0.0954965,-0.102008 -0.224706,-0.26522 -0.381262,-0.47647l-0.19707 -0.278676 -0.721432 -1.02065c-0.102152,-0.115753 -0.224706,-0.265509 -0.360572,-0.435666l-0.67354 -0.979707c-0.0954965,-0.102297 -0.20416,-0.265654 -0.340459,-0.47647l-0.340025 -0.435232 -0.47647 -0.701176 -0.197359 -0.217616 -0.544185 -0.755146 -0.517273 -0.701031 -0.156267 -0.217761 -0.238162 -0.380828c-0.163357,-0.183903 -0.27231,-0.33337 -0.340459,-0.435666l-0.380973 -0.537385c-0.156556,-0.258564 -0.306023,-0.455923 -0.435522,-0.599023l-0.102008 -0.163212 -0.537385 -0.694086c-0.183903,-0.33337 -0.381262,-0.584988 -0.578332,-0.761801l0.0202568 0.557642 0.040803 0.258853 -0.0202568 0.26522 0.0610599 0.734889 0 0.217616c0.0273467,0.197359 0.0476035,0.442322 0.0544041,0.721288l0 0.217616 0.0205462 0.360716 0.040803 0.353916 0.0202568 0.578332 0 0.163357c0.040803,0.421776 0.0546934,0.768891 0.040803,1.03411l0.040803 0.258853 0.040803 0.380828 0.0206909 0.578332 0 0.714632 0.0610599 0.163357 -0.0202568 0.319768 0.0340025 0.19707 0.040803 0.381262c-0.0273467,0.367517 -0.0137457,0.68034 0.040803,0.932248l-0.0205462 0.360427 0.040803 0.217906 0 0.197359 0.0817508 1.29948 0.040803 0.381262c-0.0134563,0.170013 -0.00680051,0.306023 0.0205462,0.414976l-0.0205462 0.360716 0.0546934 0.156556 -0.0138904 0.319479 0.0341472 0.102297c-0.013601,0.210816 -0.013601,0.408175 -0.00680051,0.598879 0.00680051,0.183469 0.0273467,0.299222 0.0681498,0.33337l-0.0205462 0.360572 0.040803 0.122554 0.0613492 1.87086 0.040803 0.197359 0.0409477 0.381262c-0.0273467,0.374317 -0.00708989,0.686996 0.0542594,0.939049 -0.0134563,0.19707 -0.0134563,0.476035 0,0.836752l0.040803 0.102297c0,0.210816 0.00680051,0.469235 0.0202568,0.775692l0.040803 0.360282 0.0206909 0.374607 0.040803 0.360282 0.0202568 0.578622 0.319768 -0.040803 0.258853 -0.040803c0.408175,-0.0138904 0.911702,-0.0546934 1.51058,-0.115753l0.258419 -0.040803 0.224417 0 0.299512 -0.0205462 0.891445 -0.122554 0.163357 0.0206909 0.619135 -0.0817508 -0.0205462 -0.353916 -0.0817508 -0.483125c-0.0269126,-0.34017 -0.0677157,-0.619135 -0.115609,-0.836752l-0.163357 -1.0548 0.0205462 -0.197359 -0.102152 -0.319913c-0.013601,-0.319768 -0.0409477,-0.598445 -0.0952071,-0.836752 0.0134563,-0.210816 -0.0134563,-0.387918 -0.0816061,-0.517128l0.0205462 -0.224417c-0.040803,-0.0614939 -0.0749503,-0.183903 -0.102297,-0.353916l-0.135865 -1.15666 -0.0409477 -0.21805c-0.027202,-0.135865 -0.0545487,-0.340025 -0.0816061,-0.619135l-0.040803 -0.217616 -0.040803 -0.204015c0.0134563,-0.1431 -0.00680051,-0.326714 -0.0749503,-0.537529l-0.0205462 -0.456213 -0.040803 -0.319479 0.1363 0.217616 0.483125 0.857298 0.0952071 0.102008 1.10226 1.8917 0.156556 0.197504 0.380973 0.598445 0.0950624 0.21805 0.0817508 0.101863c0.197359,0.401519 0.442322,0.796238 0.734889,1.19747l0.0816061 0.197359c0.319913,0.483125 0.660228,1.0412 1.02065,1.67394l0.0954965 0.102152 0.516838 0.877555 0.0817508 -0.421631 0.122409 -0.35406c0.0138904,-0.176668 0.040803,-0.312679 0.0749503,-0.421631l0.0613492 -0.258564c0.0134563,-0.265509 0.0610599,-0.483125 0.142811,-0.660228l0 -0.217616 0.197359 -0.857443 0.0816061 -0.319768 0.0749503 -0.455923 0.0610599 -0.421776 0.142955 -0.414976 0 -0.20416 0.0749503 -0.292856 0.0610599 -0.26522 0.21805 -1.13626c0.0816061,-0.27911 0.12921,-0.517273 0.142666,-0.714343l0.0613492 -0.217906 0.0612046 -0.299367 0.217616 -1.0412 0.0748056 -0.353626 0.0614939 -0.360716c0.0816061,-0.265509 0.12921,-0.503382 0.142666,-0.714632 0.040803,-0.108663 0.0816061,-0.251619 0.1363,-0.421631l0.0610599 -0.299367c0.013601,-0.210816 0.040803,-0.33337 0.0817508,-0.360716 0,-0.142955 0.027202,-0.319768 0.0816061,-0.517128l0.0542594 -0.41512 0.0817508 -0.360716 0.122409 -0.360572c0.0138904,-0.170157 0.0341472,-0.346971 0.0749503,-0.516983l0.122409 -0.496582 0.0205462 -0.163357c0.0817508,-0.27911 0.122554,-0.517273 0.13601,-0.714632l0.0614939 -0.163357c0.0542594,-0.380828 0.122409,-0.693941 0.19707,-0.932248 0.0137457,-0.26522 0.0613492,-0.503382 0.142955,-0.720998l0.0817508 -0.517273 0.0748056 -0.258419 0.0610599 -0.238162 0.1431 -0.741689c0,-0.088696 0.0202568,-0.156556 0.0542594,-0.197359l0.0206909 -0.197359 0.122409 -0.578332 0.0816061 -0.360716 0.13601 -0.714632c0.0817508,-0.26522 0.115753,-0.523639 0.102008,-0.782348l-0.360427 -0.0202568zm-2.27282 -12.9351l0.122554 0.401519 0.313113 1.83035c0,0.108663 0.0202568,0.183614 0.0610599,0.217616l0.0613492 0.27911 0 0.224272c0.040803,0.224706 0.0749503,0.35406 0.102297,0.394863 0.115319,0.877555 0.251619,1.57873 0.394429,2.09557 0.040803,0.183903 0.0816061,0.374173 0.122409,0.558076l0.040803 0.401519 0.21805 1.21092 0.0610599 0.442322 0.176813 0.898246 0.163357 0.891445 0.156556 0.877844 0.0613492 0.34017c0.101863,0.292566 0.156556,0.571532 0.156556,0.836752l0.0610599 0.102297 0.0613492 0.394719 0.0610599 0.380973 0.217761 0.999964 0.0613492 0.333804 0.0542594 0.340025 0.102297 0.659939c0.040803,0.1431 0.0816061,0.35406 0.122409,0.619135l0.217616 1.11615 0.0614939 0.258564 0.0337131 0.278965 0.0613492 0.34017 0.217761 1.21121 0.0613492 0.238162 0 0.224417 0.0610599 0.319913 0.102297 0.394719 0.0542594 0.34017 0.0613492 0.380828 0.0612046 0.27911 0.217616 1.11586c0,0.102152 0.0205462,0.177103 0.0613492,0.217906l0.0610599 0.435232 0.102297 0.619425 0.0542594 0.217616 0.0613492 0.34017c0.0270573,0.190704 0.0612046,0.374173 0.102008,0.558076l0.217906 1.21801 0.0610599 0.380973 0.27911 1.55138c0.101863,0.374173 0.176813,0.694086 0.217616,0.959595l0.0613492 0.496582 0.115753 0.380973 0 0.238162c0.0270573,0.21096 0.0610599,0.34017 0.101863,0.380973 0,0.1431 0.0205462,0.326569 0.0614939,0.558076 0.101863,0.292566 0.170013,0.558076 0.190269,0.795949 0.0205462,0.238162 0.0476035,0.374462 0.0884066,0.41541 0,0.149466 0.0205462,0.33337 0.0613492,0.557642l0.0952071 0.442322c0.040803,0.1431 0.0681498,0.27231 0.0884066,0.388063 0.0205462,0.108663 0.0545487,0.258419 0.0954965,0.449123 0.0269126,0.33337 0.0748056,0.632592 0.156556,0.898101l0.0610599 0.278821c0.040803,0.367372 0.0950624,0.680485 0.156556,0.932248l0 0.224706c0.040803,0.0748056 0.0816061,0.210816 0.122409,0.394719l0.040803 0.319479 0.176813 0.959595 0.0614939 0.27911 0.040803 0.217616c0,0.142955 0.040803,0.33337 0.115753,0.558076l0.0610599 0.496582 0.0613492 0.319913c0.108663,0 0.176813,-0.0138904 0.217616,-0.040803l0.836752 -0.898246 0.258853 -0.33337 1.34057 -1.38137 0 -1.27227 -0.0409477 -0.122843 0 -0.993308 -0.0613492 -0.34017 0 -1.11601 -0.0610599 -0.102008 0 -0.993308 -0.0613492 -0.278965 0 -1.17721 -0.0544041 -0.319913c0.0341472,-0.40832 0.0202568,-0.748345 -0.040803,-1.01385l0 -0.598589c-0.040803,-0.517273 -0.040803,-0.946139 0,-1.27951l0.435232 -0.0542594 0.163357 0.156556 1.33377 2.01396 0.217616 0.278965 1.05466 1.55153 0.224706 0.258419c0.142811,0.306312 0.346971,0.605679 0.61248,0.898101l0.619135 0.939049 0.163212 0.238162 0.217761 0.27911 0.619135 0.938904 0.0953518 0.102008 0.27911 0.394719 0.40123 0.619135 0.156556 -0.0610599 0.401519 -0.340459 0.319768 -0.217616 0.238162 -0.156556 0.217761 -0.183614c0.190559,-0.102152 0.292422,-0.197359 0.319768,-0.278965l0.959305 -0.653283 0.217906 -0.163212 0.557786 -0.455923 0.102152 -0.0613492 0.27911 -0.217616 0.612335 -0.442322c0,-0.102008 -0.0340025,-0.217616 -0.115753,-0.33337l-0.278965 -0.224706 -0.319913 -0.34017 -0.122409 -0.0340025 -1.27242 -1.23827 -0.163212 -0.102297 -1.7282 -1.61244 -0.27911 -0.217616 -1.0004 -0.959595 -0.217616 -0.156556 -0.442322 -0.442322 -0.176813 -0.115464 -0.537529 -0.558076 -0.122409 -0.040803c-0.224706,-0.265509 -0.442322,-0.476325 -0.653283,-0.619135l-0.183903 -0.993597 1.99371 -1.68059c0.122554,-0.0612046 0.20416,-0.115753 0.238307,-0.156556 0.190559,-0.183614 0.313113,-0.299367 0.380973,-0.34017l0.217906 -0.156556 1.7758 -1.45589 -0.040803 -0.497016c0,-0.292566 -0.0202568,-0.530729 -0.0612046,-0.720998l-0.115609 -1.99385 -0.0409477 -0.176668 0 -0.558076 -0.0613492 -0.163357 -0.115753 -1.61273 -0.278676 0.217906c-0.217906,0.306023 -0.435522,0.550986 -0.660228,0.741545 -0.122554,0.102008 -0.251763,0.251763 -0.40123,0.435666 -0.292856,0.251619 -0.605679,0.584988 -0.932248,1.00011 -0.292566,0.265509 -0.524073,0.503382 -0.680629,0.714632l-0.598879 0.619135c-0.0816061,0.108663 -0.156122,0.204015 -0.231073,0.299222 -0.0681498,0.0952071 -0.1431,0.156556 -0.20416,0.197359 -0.231362,0.183614 -0.360716,0.319913 -0.401519,0.401519l-0.217616 0.27911 -0.619425 0.598445 -0.156267 0.21805 -2.17761 2.33388 -0.0952071 -0.442467 0 -1.05466 -0.0613492 -0.163357 -0.0610599 -2.23187 -0.0613492 -0.435232 -0.0409477 -2.21147 -0.0542594 -0.238162 -0.278965 -7.28088c0,-0.101863 -0.0202568,-0.176813 -0.0612046,-0.217616l-0.0613492 -2.21132 -0.0610599 -0.401519 0 -0.993308 -0.040803 -0.340459 0 -0.939049 -0.0546934 -0.217616 -0.0610599 -2.33388 -0.0613492 -0.156556 -0.0409477 -1.61953 -0.734744 -0.0542594c-0.374317,0.040803 -0.707542,0.0205462 -1.00011,-0.0610599l-1.83049 -0.0614939 -0.101863 -0.040803 -0.837041 0 -0.34017 -0.0610599 -0.619135 0c-0.21125,-0.0341472 -0.422065,-0.0546934 -0.626225,-0.0546934 -0.20416,0 -0.380973,-0.0202568 -0.523928,-0.0610599l-1.83729 0 0 0.496726zm26.0879 -0.755435l-2.06851 0.177103 -0.40123 0.0610599 -0.360716 0.040803 -1.31322 0.177103 -0.238162 0c-0.0681498,0.040803 -0.197359,0.0610599 -0.401519,0.0610599 -0.238162,0.0817508 -0.435522,0.122554 -0.598879,0.122554l-1.01385 0.176813 -0.176813 0.0613492 -0.34017 0.0544041 -0.721288 0.122409 0.0610599 0.775692 0 0.578332c0.040803,0.238162 0.0818955,0.558076 0.122698,0.959595l0 0.659939c0.0409477,0.238162 0.0817508,0.530729 0.115464,0.877989l0.122409 1.89141 0.41541 0.0610599 0.639392 0c0.122409,0 0.319913,0.0206909 0.598879,0.0546934 0.27911,0 0.639682,0.0202568 1.07506,0.0610599l0.639682 0.0614939 0.775692 0 0.183469 0.0610599c0.381262,-0.040803 0.714632,-0.0202568 0.993742,0.0613492 0.319768,-0.040803 0.619135,-0.0205462 0.898101,0.0544041l0 1.31988 0.0610599 0.177103 0 1.17721 0.0614939 0.47618 0 1.35388 0.0542594 0.48327 0.0614939 2.78994 0.0610599 0.455923 0 0.959161 0.0613492 0.238162 0.0610599 3.0077c0,0.122409 0.013601,0.20416 0.0544041,0.244963l0 1.55138c0.0816061,0.224417 0.102152,0.462579 0.0613492,0.700742l0 0.898246 0.0610599 0.292566 0 1.29962 0.0613492 0.238162 0.0544041 1.89155 -0.176813 0.0613492 -1.73529 0.122554 -0.455779 0.0610599 -0.959305 0.0544041c0,0.163212 0.0134563,0.299512 0.0341472,0.422065 0.0202568,0.115609 0.0677157,0.292422 0.149466,0.516838l0.0545487 0.360716 0.0610599 0.414976 0.0614939 0.360716 0.237873 1.23856 0 0.176813 0.0613492 0.360716 0.115753 0.414976 0.183614 1.29976c0.224706,0.0748056 0.476325,0.0748056 0.755435,0l1.07491 -0.238307 0.244963 -0.0613492c0.238162,-0.040803 0.510472,-0.122409 0.816495,-0.237873l0.238307 -0.040803 0.238162 -0.0613492 0.414976 -0.122554 0.421776 -0.115753 1.47658 -0.537385c0.238162,-0.0409477 0.435522,-0.102008 0.598879,-0.183614 0.584988,-0.27911 0.993308,-0.435666 1.23147,-0.47647l0.659939 -0.299222 0.47647 -0.177103c0.584988,-0.26522 0.979852,-0.462579 1.17721,-0.578332l0.183614 -0.0610599 0.592078 -0.299656 0.183614 -0.122409c0.224706,-0.0749503 0.394719,-0.176813 0.517128,-0.299367 0.238307,-0.0749503 0.421776,-0.176813 0.537529,-0.292566l1.65368 -1.0004 0.238162 -0.176813 0.421776 -0.238162 0.122409 -0.122409 1.70794 -1.35402c5.65426,-5.14408 7.4098,-11.2748 5.28689,-18.3786l-0.598589 -1.41537 -0.177103 -0.244963 -0.782492 -1.11586 -1.53084 -1.43563 -0.122409 -0.0546934 -0.360716 -0.244963 -0.115753 -0.115753 -0.340025 -0.217616 -1.07535 -0.537385c-0.238162,-0.122554 -0.380973,-0.20416 -0.421776,-0.244963l-2.12972 -0.775692 -0.360716 -0.0614939 -1.11572 -0.299222 -0.238307 -0.0544041 -0.837041 -0.102152 -0.217616 -0.0610599 -0.244963 0 -0.353916 -0.0614939c-0.360716,-0.0748056 -0.795949,-0.115609 -1.32002,-0.115609 -0.462579,-0.0817508 -0.857298,-0.102008 -1.17721,-0.0612046l-4.74256 0 -0.360716 0.0612046zm4.51148 6.6344c4.06207,0.0681498 6.79067,2.04131 8.17204,5.92642 0.877555,6.23303 -1.40872,10.3359 -6.85882,12.316l-0.659939 0.176813 -0.299656 0.0614939c-0.238162,0.0816061 -0.476035,0.122409 -0.714343,0.122409l0 -18.3242c0.0817508,-0.183903 0.197504,-0.278965 0.360716,-0.278965zm16.065 26.1969l0.319913 0.040803 0.455779 0.101863c0.571532,0.0341472 1.25216,0.13601 2.03451,0.292566 0.571677,0.1363 1.08171,0.183903 1.53084,0.1431l0.1431 -0.156556 -0.1431 -2.33388 0.0614939 -0.340459 -0.102297 -2.01396 0.040803 -0.299222 -0.0950624 -2.19121 0.040803 -0.476325 -0.102297 -0.898246 0.0614939 -0.421776 -0.0817508 -0.898101 0.040803 -0.156556 -0.0613492 -1.02065 0.040803 -0.217616 -0.101863 -2.19121c0.0542594,-0.516838 0.0340025,-0.965961 -0.0613492,-1.33333l0.0816061 -0.258853 -0.0952071 -0.918358 0.0341472 -0.27911 -0.0341472 -1.57873 -2.13637 -0.632592c-0.265654,-0.1363 -0.578332,-0.251763 -0.939049,-0.360716l-0.796238 -0.197359c-0.687285,-0.306023 -1.28587,-0.489926 -1.78969,-0.544185l1.65368 19.1407zm11.4995 -32.0148l-0.27911 0.258709 -0.340025 0.401519 -0.27911 0.237873c-0.170013,0.292856 -0.33337,0.517273 -0.476325,0.673829l-0.81664 1.69419 -0.0202568 0.122409 -0.122409 0.381262 -0.0613492 0.156556 -0.258564 1.05437c-0.0134563,0.108953 -0.0340025,0.190704 -0.0613492,0.238307l-0.0952071 0.918647 -0.0610599 0.421776 -0.122409 1.31322 0.0202568 0.217906 0 0.244963 -0.0202568 0.632736 0.040803 0.340025c-0.0138904,0.306457 -0.00708989,0.571532 0.0202568,0.796238l0 0.660083 0.040803 0.135865 0.0816061 0.959595c0.0681498,0.374173 0.0952071,0.680629 0.0952071,0.918502 0.0273467,0.0954965 0.0613492,0.252053 0.102152,0.476325l0.0817508 0.619135 0.0610599 0.197504 0.0546934 0.401519c0.0542594,0.598879 0.12921,1.05466 0.224272,1.37457l-0.183469 0.122409 -0.299656 0.0202568 -1.15666 0.353916 -0.217616 0.0202568 -1.69448 0.517273 0.0817508 0.278965 0.258709 1.17721c0.0270573,0.108663 0.0270573,0.190414 0,0.237873l0.176813 0.762235 0.299367 0.952505 2.27267 -0.694086c0.489926,-0.196925 0.904901,-0.306023 1.23827,-0.319479l0.156556 0.476035 -0.0202568 0.163357 0.482836 1.55138c0.0614939,0.360716 0.1363,0.667028 0.21805,0.918792l1.31322 4.10288 0.163212 0.360716 0.299367 0.938904 0.156556 0.380973 0.176813 0.612335 0.163212 0.319913 0.435666 1.19776 0.163212 0.319624 0.156556 0.558076c0.21096,0.435522 0.367517,0.816495 0.462579,1.13626 0.0206909,0.0817508 0.0817508,0.197504 0.177247,0.360716 0.122409,0.380973 0.251619,0.687285 0.401085,0.911702l0.115753 0.380973 0.0816061 0.163212c0.0546934,0.170447 0.115753,0.299656 0.197504,0.394863l0.319768 0.837041 0.197359 -0.0613492c0.306023,-0.26522 0.54433,-0.496726 0.721143,-0.694086l2.25241 -2.13652 0.13601 -0.0954965c0.149756,-0.163212 0.26522,-0.271876 0.360716,-0.340025l0.319913 -0.34017c-0.0817508,-0.251619 -0.183903,-0.530729 -0.319913,-0.837041l-0.156556 -0.27911c-0.0952071,-0.333225 -0.217616,-0.612335 -0.360716,-0.836752l-0.122409 -0.421776c-0.183614,-0.326569 -0.374173,-0.755435 -0.578332,-1.27256l-0.176813 -0.34017c-0.0681498,-0.224417 -0.1363,-0.401519 -0.197359,-0.537529l-0.639826 -1.7146 -0.156556 -0.299367 -0.244963 -0.619425 -0.516838 -1.46978 -0.1363 -0.244963 -0.224417 -0.755146 -0.1363 -0.278965 -0.476035 -1.55138 -0.122554 -0.183614 -0.659939 -2.10946 0.258419 -0.1431 1.47658 -0.455779c0.517128,-0.122409 0.925448,-0.26522 1.21801,-0.442322l-0.401519 -0.496726 -0.13601 -0.258419 -0.278965 -0.421776 -0.1431 -0.217906 -0.816495 -1.17721c-0.0678604,-0.0610599 -0.122554,-0.0884066 -0.176813,-0.0746609l-0.258419 0.0409477c-0.626225,0.210816 -1.16375,0.326569 -1.61953,0.353482l-0.0341472 -0.340025 -0.503382 -2.21132c0.0134563,-0.224706 -0.00680051,-0.428866 -0.0544041,-0.619135 -0.040803,-0.102297 -0.0545487,-0.177247 -0.040803,-0.21805l-0.163357 -0.938904 0 -0.238307 -0.0748056 -0.598589 -0.0205462 -0.238162 0 -0.394719 0.0205462 -2.21132 0.0542594 -0.319913c0.0681498,-0.557786 0.190704,-1.02065 0.360716,-1.38137 0.823295,-1.36748 1.8645,-1.79635 3.13011,-1.29253 1.00691,1.27907 1.49669,2.80311 1.45589,4.586l3.51109 1.43563 0.0138904 -1.63299 -0.435666 -1.61924c-0.625936,-2.31362 -1.58539,-4.21892 -2.89195,-5.7227l-0.0816061 -0.0952071c-0.646482,-0.558076 -1.24507,-0.973051 -1.78955,-1.23827l-0.122554 -0.0205462 -0.598589 -0.217761 -0.278965 -0.040803c-0.367372,-0.0816061 -0.809839,-0.0950624 -1.31322,-0.0613492l-1.51767 0.462869 -0.714198 0.516983zm14.1532 0l-0.27911 0.258709 -0.340025 0.401519 -0.27911 0.237873c-0.170013,0.292856 -0.33337,0.517273 -0.476325,0.673829l-0.816495 1.69419 -0.0202568 0.122409 -0.122554 0.381262 -0.0613492 0.156556 -0.258564 1.05437c-0.0134563,0.108953 -0.0340025,0.190704 -0.0613492,0.238307l-0.0952071 0.918647 -0.0610599 0.421776 -0.122409 1.31322 0.0202568 0.217906 0 0.244963 -0.0202568 0.632736 0.040803 0.340025c-0.0138904,0.306457 -0.00708989,0.571532 0.0202568,0.796238l0 0.660083 0.040803 0.135865 0.0816061 0.959595c0.0681498,0.374173 0.0952071,0.680629 0.0952071,0.918502 0.0273467,0.0954965 0.0613492,0.252053 0.102297,0.476325l0.0816061 0.619135 0.0610599 0.197504 0.0546934 0.401519c0.0542594,0.598879 0.12921,1.05466 0.224417,1.37457l-0.183614 0.122409 -0.299656 0.0202568 -1.15666 0.353916 -0.217616 0.0202568 -1.69434 0.517273 0.0816061 0.278965 0.258709 1.17721c0.0270573,0.108663 0.0270573,0.190414 0,0.237873l0.176813 0.762235 0.299367 0.952505 2.27267 -0.694086c0.489926,-0.196925 0.905046,-0.306023 1.23842,-0.319479l0.156556 0.476035 -0.0202568 0.163357 0.482836 1.55138c0.0613492,0.360716 0.1363,0.667028 0.217906,0.918792l1.31322 4.10288 0.163212 0.360716 0.299367 0.938904 0.156556 0.380973 0.176813 0.612335 0.163212 0.319913 0.435666 1.19776 0.163212 0.319624 0.156556 0.558076c0.21096,0.435522 0.367517,0.816495 0.462579,1.13626 0.0206909,0.0817508 0.0817508,0.197504 0.177247,0.360716 0.122409,0.380973 0.251619,0.687285 0.401085,0.911702l0.115753 0.380973 0.0817508 0.163212c0.0545487,0.170447 0.115609,0.299656 0.197359,0.394863l0.319768 0.837041 0.197359 -0.0613492c0.306167,-0.26522 0.54433,-0.496726 0.721143,-0.694086l2.25241 -2.13652 0.13601 -0.0954965c0.149901,-0.163212 0.26522,-0.271876 0.360716,-0.340025l0.319913 -0.34017c-0.0817508,-0.251619 -0.183903,-0.530729 -0.319913,-0.837041l-0.156556 -0.27911c-0.0952071,-0.333225 -0.217616,-0.612335 -0.360716,-0.836752l-0.122409 -0.421776c-0.183614,-0.326569 -0.374173,-0.755435 -0.578332,-1.27256l-0.176813 -0.34017c-0.0681498,-0.224417 -0.1363,-0.401519 -0.197359,-0.537529l-0.639682 -1.7146 -0.156556 -0.299367 -0.244963 -0.619425 -0.516983 -1.46978 -0.1363 -0.244963 -0.224417 -0.755146 -0.1363 -0.278965 -0.476035 -1.55138 -0.122554 -0.183614 -0.659939 -2.10946 0.258419 -0.1431 1.47658 -0.455779c0.517273,-0.122409 0.925448,-0.26522 1.21801,-0.442322l-0.401519 -0.496726 -0.13601 -0.258419 -0.278965 -0.421776 -0.1431 -0.217906 -0.816495 -1.17721c-0.0678604,-0.0610599 -0.122554,-0.0884066 -0.176813,-0.0746609l-0.258419 0.0409477c-0.626225,0.210816 -1.16375,0.326569 -1.61953,0.353482l-0.0341472 -0.340025 -0.503382 -2.21132c0.0134563,-0.224706 -0.00680051,-0.428866 -0.0544041,-0.619135 -0.040803,-0.102297 -0.0545487,-0.177247 -0.040803,-0.21805l-0.163212 -0.938904 0 -0.238307 -0.0749503 -0.598589 -0.0205462 -0.238162 0 -0.394719 0.0205462 -2.21132 0.0542594 -0.319913c0.0681498,-0.557786 0.190704,-1.02065 0.360716,-1.38137 0.823295,-1.36748 1.8645,-1.79635 3.13011,-1.29253 1.00691,1.27907 1.49683,2.80311 1.45589,4.586l3.51109 1.43563 0.0138904 -1.63299 -0.435666 -1.61924c-0.625791,-2.31362 -1.58539,-4.21892 -2.89181,-5.7227l-0.0817508 -0.0952071c-0.646482,-0.558076 -1.24507,-0.973051 -1.78955,-1.23827l-0.122554 -0.0205462 -0.598445 -0.217761 -0.27911 -0.040803c-0.367372,-0.0816061 -0.809694,-0.0950624 -1.31322,-0.0613492l-1.51753 0.462869 -0.714343 0.516983z"/>
    <path id="_36403008" class="fil5" d="M227.922 83.5976c-1.59233,1.12975 -2.03465,2.45643 -1.33348,3.98756 0.891156,0.965961 1.95261,1.38803 3.19117,1.25173 2.28627,-0.612335 3.21143,-1.87115 2.7694,-3.78296 -0.782782,-1.87795 -2.32708,-2.36122 -4.62709,-1.45632z"/>
   </g>
  </g>
 </g>
</svg>
